<svg xmlns="http://www.w3.org/2000/svg" version="1.1" xmlns:xlink="http://www.w3.org/1999/xlink" xmlns:svgjs="http://svgjs.dev/svgjs" width="1000" height="217" viewBox="0 0 1000 217"><g transform="matrix(1,0,0,1,-0.6060354804068879,-0.09797571876711686)"><svg viewBox="0 0 396 86" data-background-color="#ffffff" preserveAspectRatio="xMidYMid meet" height="217" width="1000" xmlns="http://www.w3.org/2000/svg" xmlns:xlink="http://www.w3.org/1999/xlink"><g id="tight-bounds" transform="matrix(1,0,0,1,0.23999005024111852,0.03882908670033203)"><svg viewBox="0 0 395.5199999999999 85.92234182659936" height="85.92234182659936" width="395.5199999999999"><g><svg viewBox="0 0 521.2876868420524 113.24397961883119" height="85.92234182659936" width="395.5199999999999"><g transform="matrix(1,0,0,1,125.76768684205244,15.65094074326828)"><svg viewBox="0 0 395.52 81.94209813229463" height="81.94209813229463" width="395.52"><g id="textblocktransform"><svg viewBox="0 0 395.52 81.94209813229463" height="81.94209813229463" width="395.52" id="textblock"><g><svg viewBox="0 0 395.52 53.047783783783785" height="53.047783783783785" width="395.52"><g transform="matrix(1,0,0,1,0,0)"><svg width="395.52" viewBox="5.099999904632568 -38.849998474121094 295.97998046875 39.69999694824219" height="53.047783783783785" data-palette-color="#00ebff"><path d="M5.1 0L5.1-36.3 28.95-36.3 28.95-31.15 10.45-31.15 10.45-20.8 26.9-20.8 26.9-15.65 10.45-15.65 10.45-5.15 29.65-5.15 29.65 0 5.1 0ZM43.4 0.85L43.4 0.85Q40.5 0.85 38.65-0.9 36.8-2.65 36.7-5.4L36.7-5.4 36.7-20.95 41.85-20.95 41.85-7.25Q41.95-5.65 42.77-4.63 43.6-3.6 45.45-3.55L45.45-3.55Q47.15-3.55 48.47-4.58 49.8-5.6 50.57-7.38 51.35-9.15 51.35-11.45L51.35-11.45 51.35-20.95 56.5-20.95 56.5 0 51.85 0 51.45-4.85 51.65-4.05Q51-2.65 49.8-1.53 48.6-0.4 46.95 0.23 45.3 0.85 43.4 0.85ZM71.3 0L66.15 0 66.15-16.4 62.6-16.4 62.6-20.95 66.15-20.95 66.15-29.45Q66.15-33.95 68.3-36.4 70.45-38.85 74.55-38.85L74.55-38.85Q75.65-38.85 77-38.53 78.35-38.2 79.4-37.5L79.4-37.5 77.25-33.75Q76.8-34.25 76.22-34.45 75.65-34.65 75.05-34.65L75.05-34.65Q73.3-34.65 72.3-33.45 71.3-32.25 71.3-29.35L71.3-29.35 71.3-20.95 77.9-20.95 77.9-16.4 71.3-16.4 71.3 0ZM80.94-10.7L80.94-10.7Q80.94-13.85 82.44-16.38 83.94-18.9 86.59-20.35 89.24-21.8 92.64-21.8L92.64-21.8Q96.09-21.8 98.69-20.35 101.29-18.9 102.72-16.38 104.14-13.85 104.14-10.7L104.14-10.7Q104.14-7.55 102.72-5 101.29-2.45 98.69-0.98 96.09 0.5 92.59 0.5L92.59 0.5Q89.24 0.5 86.62-0.85 83.99-2.2 82.47-4.73 80.94-7.25 80.94-10.7ZM86.14-10.65L86.14-10.65Q86.14-8.7 86.99-7.13 87.84-5.55 89.29-4.63 90.74-3.7 92.54-3.7L92.54-3.7Q94.39-3.7 95.84-4.63 97.29-5.55 98.12-7.13 98.94-8.7 98.94-10.65L98.94-10.65Q98.94-12.6 98.12-14.15 97.29-15.7 95.84-16.65 94.39-17.6 92.54-17.6L92.54-17.6Q90.69-17.6 89.24-16.65 87.79-15.7 86.97-14.13 86.14-12.55 86.14-10.65ZM110.24-20.95L114.84-20.95 115.34-14.95 115.09-15.75Q115.94-17.65 117.49-19 119.04-20.35 120.72-21.08 122.39-21.8 123.54-21.8L123.54-21.8 123.29-16.7Q120.89-16.85 119.12-15.8 117.34-14.75 116.34-13 115.34-11.25 115.34-9.25L115.34-9.25 115.34 0 110.24 0 110.24-20.95ZM129.39 0L129.39-20.95 134.54-20.95 134.54 0 129.39 0ZM129.09-28.45L129.09-28.45Q129.09-29.65 130.04-30.45 130.99-31.25 132.09-31.25L132.09-31.25Q133.24-31.25 134.14-30.45 135.04-29.65 135.04-28.45L135.04-28.45Q135.04-27.25 134.14-26.48 133.24-25.7 132.09-25.7L132.09-25.7Q130.99-25.7 130.04-26.48 129.09-27.25 129.09-28.45ZM151.13 0.5L151.13 0.5Q148.19 0.5 145.78-0.73 143.38-1.95 141.99-4.4 140.59-6.85 140.59-10.45L140.59-10.45Q140.59-14 142.06-16.55 143.53-19.1 145.96-20.48 148.38-21.85 151.24-21.85L151.24-21.85Q154.24-21.85 156.16-20.58 158.09-19.3 159.19-17.6L159.19-17.6 158.84-16.8 159.34-20.95 164.09-20.95 164.09 0 158.94 0 158.94-5.25 159.49-4Q159.28-3.6 158.63-2.88 157.99-2.15 156.91-1.35 155.84-0.55 154.41-0.03 152.99 0.5 151.13 0.5ZM152.53-3.7L152.53-3.7Q154.19-3.7 155.49-4.3 156.78-4.9 157.69-6 158.59-7.1 158.94-8.6L158.94-8.6 158.94-12.95Q158.53-14.35 157.59-15.38 156.63-16.4 155.31-17 153.99-17.6 152.38-17.6L152.38-17.6Q150.59-17.6 149.09-16.73 147.59-15.85 146.69-14.3 145.78-12.75 145.78-10.7L145.78-10.7Q145.78-8.75 146.71-7.15 147.63-5.55 149.19-4.63 150.74-3.7 152.53-3.7ZM196.88-36.3L202.23-36.3 202.23 0 196.88 0 196.88-15.65 178.48-15.65 178.48 0 173.13 0 173.13-36.3 178.48-36.3 178.48-20.75 196.88-20.75 196.88-36.3ZM209.48-10.7L209.48-10.7Q209.48-13.85 210.98-16.38 212.48-18.9 215.13-20.35 217.78-21.8 221.18-21.8L221.18-21.8Q224.63-21.8 227.23-20.35 229.83-18.9 231.26-16.38 232.68-13.85 232.68-10.7L232.68-10.7Q232.68-7.55 231.26-5 229.83-2.45 227.23-0.98 224.63 0.5 221.13 0.5L221.13 0.5Q217.78 0.5 215.16-0.85 212.53-2.2 211.01-4.73 209.48-7.25 209.48-10.7ZM214.68-10.65L214.68-10.65Q214.68-8.7 215.53-7.13 216.38-5.55 217.83-4.63 219.28-3.7 221.08-3.7L221.08-3.7Q222.93-3.7 224.38-4.63 225.83-5.55 226.66-7.13 227.48-8.7 227.48-10.65L227.48-10.65Q227.48-12.6 226.66-14.15 225.83-15.7 224.38-16.65 222.93-17.6 221.08-17.6L221.08-17.6Q219.23-17.6 217.78-16.65 216.33-15.7 215.51-14.13 214.68-12.55 214.68-10.65ZM238.78-20.95L243.38-20.95 243.83-16.45 243.63-16.8Q244.83-19.15 246.93-20.48 249.03-21.8 251.78-21.8L251.78-21.8Q253.48-21.8 254.85-21.25 256.23-20.7 257.13-19.7 258.03-18.7 258.28-17.2L258.28-17.2 258.03-17.05Q259.28-19.25 261.35-20.53 263.43-21.8 265.78-21.8L265.78-21.8Q268.83-21.8 270.65-20.05 272.48-18.3 272.53-15.55L272.53-15.55 272.53 0 267.43 0 267.43-13.6Q267.38-15.15 266.7-16.2 266.03-17.25 264.33-17.35L264.33-17.35Q262.53-17.35 261.15-16.25 259.78-15.15 259.03-13.4 258.28-11.65 258.23-9.65L258.23-9.65 258.23 0 253.08 0 253.08-13.6Q253.03-15.15 252.33-16.2 251.63-17.25 249.88-17.35L249.88-17.35Q248.08-17.35 246.73-16.25 245.38-15.15 244.65-13.38 243.93-11.6 243.93-9.65L243.93-9.65 243.93 0 238.78 0 238.78-20.95ZM290.28 0.5L290.28 0.5Q286.63 0.5 284.03-0.93 281.43-2.35 280.03-4.88 278.63-7.4 278.63-10.65L278.63-10.65Q278.63-13.75 280.2-16.28 281.78-18.8 284.45-20.3 287.13-21.8 290.38-21.8L290.38-21.8Q294.58-21.8 297.35-19.35 300.13-16.9 301.08-12.5L301.08-12.5 284.03-6.6 282.83-9.6 296.48-14.5 295.43-13.85Q294.83-15.4 293.53-16.57 292.23-17.75 289.98-17.75L289.98-17.75Q288.18-17.75 286.75-16.88 285.33-16 284.5-14.48 283.68-12.95 283.68-10.9L283.68-10.9Q283.68-8.8 284.55-7.23 285.43-5.65 286.95-4.75 288.48-3.85 290.38-3.85L290.38-3.85Q291.73-3.85 292.95-4.35 294.18-4.85 295.28-5.6L295.28-5.6 297.63-1.8Q295.98-0.75 294.05-0.13 292.13 0.5 290.28 0.5Z" opacity="1" transform="matrix(1,0,0,1,0,0)" fill="#00ebff" class="wordmark-text-0" data-fill-palette-color="primary" id="text-0"></path></svg></g></svg></g><g transform="matrix(1,0,0,1,0,65.57109238832433)"><svg viewBox="0 0 232.209792 16.37100574397031" height="16.37100574397031" width="232.209792"><g transform="matrix(1,0,0,1,0,0)"><svg width="232.209792" viewBox="2.549999952316284 -36.5 673.6799926757812 47.5" height="16.37100574397031" data-palette-color="#00ebff"><path d="M25.6 0L12.1 0Q9.2 0 7.05-1.35 4.9-2.7 3.73-4.93 2.55-7.15 2.55-9.65L2.55-9.65Q2.55-12.15 3.83-14.38 5.1-16.6 7.55-17.75L7.55-17.75Q5.1-19 3.93-21.08 2.75-23.15 2.75-25.45L2.75-25.45Q2.75-28.1 4-30.25 5.25-32.4 7.35-33.68 9.45-34.95 12.05-34.95L12.05-34.95 25.6-34.95 25.6-31.75 12.45-31.75Q10.7-31.75 9.33-30.93 7.95-30.1 7.15-28.65 6.35-27.2 6.35-25.45L6.35-25.45Q6.35-23.85 7.2-22.45 8.05-21.05 9.45-20.23 10.85-19.4 12.65-19.4L12.65-19.4 23.75-19.4 23.75-16.2 12.95-16.2Q10.8-16.2 9.28-15.25 7.75-14.3 6.98-12.8 6.2-11.3 6.2-9.6L6.2-9.6Q6.2-7.95 6.95-6.5 7.7-5.05 9.15-4.13 10.6-3.2 12.65-3.2L12.65-3.2 25.6-3.2 25.6 0ZM43.4 0.65L43.4 0.65Q40.2 0.65 37.55-0.73 34.9-2.1 33.32-4.65 31.75-7.2 31.75-10.65L31.75-10.65 31.75-25.5 35.25-25.5 35.25-10.8Q35.25-8.15 36.42-6.25 37.6-4.35 39.45-3.38 41.3-2.4 43.4-2.4L43.4-2.4Q45.55-2.4 47.42-3.4 49.3-4.4 50.45-6.28 51.6-8.15 51.6-10.8L51.6-10.8 51.6-25.5 55.1-25.5 55.1-10.65Q55.1-7.2 53.52-4.65 51.95-2.1 49.32-0.73 46.7 0.65 43.4 0.65ZM75.6-26.15L75.6-26.15Q72.1-26.15 69.15-24.6 66.2-23.05 64.45-20.05 62.7-17.05 62.7-12.8L62.7-12.8 62.7 11 66.2 11 66.2-5.25 66.3-5.25Q67.15-3.55 68.65-2.23 70.15-0.9 72.05-0.15 73.95 0.6 76.05 0.6L76.05 0.6Q79.5 0.6 82.32-1 85.15-2.6 86.85-5.53 88.55-8.45 88.55-12.55L88.55-12.55Q88.55-15.75 87.55-18.28 86.55-20.8 84.77-22.55 83-24.3 80.65-25.23 78.3-26.15 75.6-26.15ZM75.55-23.1L75.55-23.1Q78.1-23.1 80.25-21.88 82.4-20.65 83.7-18.32 85-16 85-12.75L85-12.75Q85-9.6 83.7-7.28 82.4-4.95 80.27-3.7 78.15-2.45 75.65-2.45L75.65-2.45Q73.15-2.45 71-3.68 68.85-4.9 67.55-7.2 66.25-9.5 66.25-12.8L66.25-12.8Q66.25-16.1 67.52-18.4 68.8-20.7 70.92-21.9 73.05-23.1 75.55-23.1ZM98.39 0L94.89 0 94.89-36.5 98.39-36.5 98.39-21.45Q99.89-23.8 102.32-24.98 104.74-26.15 107.44-26.15L107.44-26.15Q110.64-26.15 113.22-24.78 115.79-23.4 117.29-20.88 118.79-18.35 118.79-14.85L118.79-14.85 118.74 0 115.29 0 115.29-14.7Q115.29-17.35 114.07-19.23 112.84-21.1 110.92-22.1 108.99-23.1 106.79-23.1L106.79-23.1Q104.69-23.1 102.74-22.13 100.79-21.15 99.59-19.3 98.39-17.45 98.39-14.8L98.39-14.8 98.39 0ZM138.39 0.65L138.39 0.65Q134.54 0.65 131.54-1.13 128.54-2.9 126.84-5.95 125.14-9 125.14-12.75L125.14-12.75Q125.14-16.5 126.84-19.55 128.54-22.6 131.54-24.38 134.54-26.15 138.39-26.15L138.39-26.15Q142.24-26.15 145.22-24.38 148.19-22.6 149.92-19.55 151.64-16.5 151.64-12.75L151.64-12.75Q151.64-9 149.92-5.95 148.19-2.9 145.22-1.13 142.24 0.65 138.39 0.65ZM138.39-2.4L138.39-2.4Q141.24-2.4 143.44-3.78 145.64-5.15 146.87-7.5 148.09-9.85 148.09-12.75L148.09-12.75Q148.09-15.65 146.87-18 145.64-20.35 143.44-21.73 141.24-23.1 138.39-23.1L138.39-23.1Q135.49-23.1 133.32-21.73 131.14-20.35 129.92-18 128.69-15.65 128.69-12.75L128.69-12.75Q128.69-9.85 129.92-7.5 131.14-5.15 133.32-3.78 135.49-2.4 138.39-2.4ZM161.39 0L157.89 0 157.89-18.25Q157.89-21.65 159.81-23.58 161.74-25.5 165.14-25.5L165.14-25.5 169.54-25.5 169.54-22.45 165.84-22.45Q163.64-22.45 162.51-21.25 161.39-20.05 161.39-17.85L161.39-17.85 161.39 0ZM177.54 0L174.04 0 174.04-25.5 177.54-25.5 177.54 0ZM175.79-30.1L175.79-30.1Q174.79-30.1 174.04-30.85 173.29-31.6 173.29-32.6L173.29-32.6Q173.29-33.65 174.04-34.38 174.79-35.1 175.79-35.1L175.79-35.1Q176.84-35.1 177.56-34.35 178.29-33.6 178.29-32.6L178.29-32.6Q178.29-31.6 177.56-30.85 176.84-30.1 175.79-30.1ZM196.13 0.65L196.13 0.65Q192.28 0.65 189.53-1.15 186.78-2.95 185.33-5.98 183.88-9 183.88-12.75L183.88-12.75Q183.88-16.55 185.48-19.58 187.08-22.6 190.06-24.35 193.03-26.1 197.13-26.1L197.13-26.1Q201.08-26.1 203.96-24.35 206.83-22.6 208.41-19.65 209.98-16.7 209.98-13L209.98-13 209.98 0 206.53 0 206.53-5.7 206.38-5.7Q205.68-4.2 204.28-2.73 202.88-1.25 200.86-0.3 198.83 0.65 196.13 0.65ZM196.88-2.35L196.88-2.35Q199.68-2.35 201.83-3.73 203.98-5.1 205.23-7.48 206.48-9.85 206.43-12.85L206.43-12.85Q206.43-15.8 205.28-18.1 204.13-20.4 202.03-21.75 199.93-23.1 197.03-23.1L197.03-23.1Q194.03-23.1 191.88-21.73 189.73-20.35 188.58-17.98 187.43-15.6 187.43-12.6L187.43-12.6Q187.43-9.8 188.53-7.45 189.63-5.1 191.76-3.73 193.88-2.35 196.88-2.35ZM242.83 0.65L242.83 0.65Q238.98 0.65 235.98-1.13 232.98-2.9 231.28-5.95 229.58-9 229.58-12.75L229.58-12.75Q229.58-16.5 231.28-19.55 232.98-22.6 235.98-24.38 238.98-26.15 242.83-26.15L242.83-26.15Q246.68-26.15 249.65-24.38 252.63-22.6 254.35-19.55 256.08-16.5 256.08-12.75L256.08-12.75Q256.08-9 254.35-5.95 252.63-2.9 249.65-1.13 246.68 0.65 242.83 0.65ZM242.83-2.4L242.83-2.4Q245.68-2.4 247.88-3.78 250.08-5.15 251.3-7.5 252.53-9.85 252.53-12.75L252.53-12.75Q252.53-15.65 251.3-18 250.08-20.35 247.88-21.73 245.68-23.1 242.83-23.1L242.83-23.1Q239.93-23.1 237.75-21.73 235.58-20.35 234.35-18 233.13-15.65 233.13-12.75L233.13-12.75Q233.13-9.85 234.35-7.5 235.58-5.15 237.75-3.78 239.93-2.4 242.83-2.4ZM267.33 0L263.88 0 263.88-22.45 259.38-22.45 259.38-25.5 263.88-25.5 263.88-29.25Q263.88-32.65 265.8-34.58 267.73-36.5 271.13-36.5L271.13-36.5 276.93-36.5 276.93-33.45 271.78-33.45Q269.63-33.45 268.48-32.25 267.33-31.05 267.33-28.85L267.33-28.85 267.33-25.5 275.98-25.5 275.98-22.45 267.33-22.45 267.33 0ZM298.72 0L295.12 0 295.12-34.95 298.72-34.95 298.72-19.4 318.77-19.4 318.77-34.95 322.37-34.95 322.37 0 318.77 0 318.77-16.2 298.72-16.2 298.72 0ZM341.07 0.65L341.07 0.65Q337.22 0.65 334.47-1.15 331.72-2.95 330.27-5.98 328.82-9 328.82-12.75L328.82-12.75Q328.82-16.55 330.42-19.58 332.02-22.6 334.99-24.35 337.97-26.1 342.07-26.1L342.07-26.1Q346.02-26.1 348.89-24.35 351.77-22.6 353.34-19.65 354.92-16.7 354.92-13L354.92-13 354.92 0 351.47 0 351.47-5.7 351.32-5.7Q350.62-4.2 349.22-2.73 347.82-1.25 345.79-0.3 343.77 0.65 341.07 0.65ZM341.82-2.35L341.82-2.35Q344.62-2.35 346.77-3.73 348.92-5.1 350.17-7.48 351.42-9.85 351.37-12.85L351.37-12.85Q351.37-15.8 350.22-18.1 349.07-20.4 346.97-21.75 344.87-23.1 341.97-23.1L341.97-23.1Q338.97-23.1 336.82-21.73 334.67-20.35 333.52-17.98 332.37-15.6 332.37-12.6L332.37-12.6Q332.37-9.8 333.47-7.45 334.57-5.1 336.69-3.73 338.82-2.35 341.82-2.35ZM366.02 0L362.52 0 362.52-18.25Q362.52-21.65 364.44-23.58 366.37-25.5 369.77-25.5L369.77-25.5 374.17-25.5 374.17-22.45 370.47-22.45Q368.27-22.45 367.14-21.25 366.02-20.05 366.02-17.85L366.02-17.85 366.02 0ZM382.11 0L378.66 0 378.66-15.4Q378.66-18.35 379.99-20.78 381.31-23.2 383.76-24.65 386.21-26.1 389.61-26.1L389.61-26.1Q391.36-26.1 393.19-25.58 395.01-25.05 396.59-23.78 398.16-22.5 399.06-20.25L399.06-20.25 399.11-20.25Q400.01-22.5 401.61-23.78 403.21-25.05 405.06-25.58 406.91-26.1 408.61-26.1L408.61-26.1Q412.06-26.1 414.51-24.65 416.96-23.2 418.26-20.78 419.56-18.35 419.56-15.4L419.56-15.4 419.56 0 416.11 0 416.11-15.4Q416.11-17.65 415.11-19.35 414.11-21.05 412.44-22.08 410.76-23.1 408.61-23.1L408.61-23.1Q406.41-23.1 404.66-22.08 402.91-21.05 401.89-19.3 400.86-17.55 400.86-15.4L400.86-15.4 400.86 0 397.36 0 397.36-15.4Q397.36-17.55 396.31-19.3 395.26-21.05 393.54-22.08 391.81-23.1 389.61-23.1L389.61-23.1Q387.51-23.1 385.79-22.08 384.06-21.05 383.09-19.35 382.11-17.65 382.11-15.4L382.11-15.4 382.11 0ZM439.16 0.65L439.16 0.65Q435.31 0.65 432.31-1.13 429.31-2.9 427.61-5.95 425.91-9 425.91-12.75L425.91-12.75Q425.91-16.5 427.61-19.55 429.31-22.6 432.31-24.38 435.31-26.15 439.16-26.15L439.16-26.15Q443.01-26.15 445.99-24.38 448.96-22.6 450.69-19.55 452.41-16.5 452.41-12.75L452.41-12.75Q452.41-9 450.69-5.95 448.96-2.9 445.99-1.13 443.01 0.65 439.16 0.65ZM439.16-2.4L439.16-2.4Q442.01-2.4 444.21-3.78 446.41-5.15 447.64-7.5 448.86-9.85 448.86-12.75L448.86-12.75Q448.86-15.65 447.64-18 446.41-20.35 444.21-21.73 442.01-23.1 439.16-23.1L439.16-23.1Q436.26-23.1 434.09-21.73 431.91-20.35 430.69-18 429.46-15.65 429.46-12.75L429.46-12.75Q429.46-9.85 430.69-7.5 431.91-5.15 434.09-3.78 436.26-2.4 439.16-2.4ZM462.26 0L458.76 0 458.76-14.85Q458.76-18.35 460.33-20.88 461.91-23.4 464.56-24.78 467.21-26.15 470.41-26.15L470.41-26.15Q473.66-26.15 476.28-24.78 478.91-23.4 480.48-20.88 482.06-18.35 482.06-14.85L482.06-14.85 482.06 0 478.56 0 478.56-14.7Q478.56-17.35 477.41-19.23 476.26-21.1 474.38-22.1 472.51-23.1 470.36-23.1L470.36-23.1Q468.26-23.1 466.41-22.13 464.56-21.15 463.41-19.28 462.26-17.4 462.26-14.7L462.26-14.7 462.26 0ZM493.26 0L489.76 0 489.76-25.5 493.26-25.5 493.26 0ZM491.51-30.1L491.51-30.1Q490.51-30.1 489.76-30.85 489.01-31.6 489.01-32.6L489.01-32.6Q489.01-33.65 489.76-34.38 490.51-35.1 491.51-35.1L491.51-35.1Q492.56-35.1 493.28-34.35 494.01-33.6 494.01-32.6L494.01-32.6Q494.01-31.6 493.28-30.85 492.56-30.1 491.51-30.1ZM512.85 0.65L512.85 0.65Q509 0.65 506-1.13 503-2.9 501.3-5.95 499.6-9 499.6-12.75L499.6-12.75Q499.6-16.5 501.3-19.55 503-22.6 506-24.38 509-26.15 512.85-26.15L512.85-26.15Q516.7-26.15 519.68-24.38 522.65-22.6 524.38-19.55 526.1-16.5 526.1-12.75L526.1-12.75Q526.1-9 524.38-5.95 522.65-2.9 519.68-1.13 516.7 0.65 512.85 0.65ZM512.85-2.4L512.85-2.4Q515.7-2.4 517.9-3.78 520.1-5.15 521.33-7.5 522.55-9.85 522.55-12.75L522.55-12.75Q522.55-15.65 521.33-18 520.1-20.35 517.9-21.73 515.7-23.1 512.85-23.1L512.85-23.1Q509.95-23.1 507.78-21.73 505.6-20.35 504.38-18 503.15-15.65 503.15-12.75L503.15-12.75Q503.15-9.85 504.38-7.5 505.6-5.15 507.78-3.78 509.95-2.4 512.85-2.4ZM544.1 0.65L544.1 0.65Q540.9 0.65 538.25-0.73 535.6-2.1 534.02-4.65 532.45-7.2 532.45-10.65L532.45-10.65 532.45-25.5 535.95-25.5 535.95-10.8Q535.95-8.15 537.13-6.25 538.3-4.35 540.15-3.38 542-2.4 544.1-2.4L544.1-2.4Q546.25-2.4 548.13-3.4 550-4.4 551.15-6.28 552.3-8.15 552.3-10.8L552.3-10.8 552.3-25.5 555.8-25.5 555.8-10.65Q555.8-7.2 554.23-4.65 552.65-2.1 550.02-0.73 547.4 0.65 544.1 0.65ZM575.55 0L562.95 0 562.95-3.05 574.95-3.05Q576.5-3.05 577.55-3.7 578.6-4.35 579.17-5.4 579.75-6.45 579.75-7.55L579.75-7.55Q579.75-8.65 579.25-9.58 578.75-10.5 577.8-11.1 576.85-11.7 575.4-11.7L575.4-11.7 570.05-11.7Q567.6-11.7 565.82-12.53 564.05-13.35 563.12-14.9 562.2-16.45 562.2-18.5L562.2-18.5Q562.2-20.35 563.1-21.95 564-23.55 565.65-24.53 567.3-25.5 569.5-25.5L569.5-25.5 581.05-25.5 581.05-22.45 569.85-22.45Q567.9-22.45 566.8-21.28 565.7-20.1 565.7-18.6L565.7-18.6Q565.7-17.15 566.8-16 567.9-14.85 570.1-14.85L570.1-14.85 575.1-14.85Q577.8-14.85 579.62-13.95 581.45-13.05 582.37-11.45 583.3-9.85 583.3-7.7L583.3-7.7Q583.3-5.75 582.3-3.98 581.3-2.2 579.57-1.1 577.85 0 575.55 0L575.55 0ZM620.84 0L611.34 0Q608.69 0 606.74-1.13 604.79-2.25 603.74-4.25 602.69-6.25 602.69-8.8L602.69-8.8 602.69-34.95 606.29-34.95 606.29-8.3Q606.29-6.1 607.67-4.65 609.04-3.2 611.44-3.2L611.44-3.2 620.84-3.2 620.84 0ZM629.94 0L626.44 0 626.44-25.5 629.94-25.5 629.94 0ZM628.19-30.1L628.19-30.1Q627.19-30.1 626.44-30.85 625.69-31.6 625.69-32.6L625.69-32.6Q625.69-33.65 626.44-34.38 627.19-35.1 628.19-35.1L628.19-35.1Q629.24-35.1 629.96-34.35 630.69-33.6 630.69-32.6L630.69-32.6Q630.69-31.6 629.96-30.85 629.24-30.1 628.19-30.1ZM642.54 0L639.09 0 639.09-22.45 634.59-22.45 634.59-25.5 639.09-25.5 639.09-29.25Q639.09-32.65 641.01-34.58 642.94-36.5 646.34-36.5L646.34-36.5 652.14-36.5 652.14-33.45 646.99-33.45Q644.84-33.45 643.69-32.25 642.54-31.05 642.54-28.85L642.54-28.85 642.54-25.5 651.19-25.5 651.19-22.45 642.54-22.45 642.54 0ZM673.03 0L666.78 0Q662.68 0 659.46-1.53 656.23-3.05 654.36-5.9 652.48-8.75 652.48-12.75L652.48-12.75Q652.48-16.45 653.98-19.48 655.48-22.5 658.21-24.3 660.93-26.1 664.58-26.1L664.58-26.1Q668.33-26.1 670.93-24.45 673.53-22.8 674.88-20 676.23-17.2 676.23-13.7L676.23-13.7Q676.23-13.2 676.18-12.6 676.13-12 676.03-11.55L676.03-11.55 656.18-11.55Q656.33-8.75 657.78-6.85 659.23-4.95 661.56-4 663.88-3.05 666.58-3.05L666.58-3.05 673.03-3.05 673.03 0ZM656.18-14.05L656.18-14.05 672.68-14.05Q672.68-15.05 672.48-16.28 672.28-17.5 671.76-18.7 671.23-19.9 670.31-20.9 669.38-21.9 667.96-22.53 666.53-23.15 664.48-23.15L664.48-23.15Q662.58-23.15 661.03-22.35 659.48-21.55 658.43-20.23 657.38-18.9 656.81-17.3 656.23-15.7 656.18-14.05Z" opacity="1" transform="matrix(1,0,0,1,0,0)" fill="#00ebff" class="slogan-text-1" data-fill-palette-color="secondary" id="text-1"></path></svg></g></svg></g></svg></g></svg></g><g><svg viewBox="0 0 113.2443782375119 113.24397961883119" height="113.24397961883119" width="113.2443782375119"><g><svg xmlns="http://www.w3.org/2000/svg" xmlns:xlink="http://www.w3.org/1999/xlink" version="1.1" x="0" y="0" viewBox="7.734947204589844 7.735245704650879 84.53054809570312 84.5302505493164" enable-background="new 0 0 100 100" xml:space="preserve" height="113.24397961883119" width="113.2443782375119" class="icon-icon-0" data-fill-palette-color="accent" id="icon-0"><g fill="#00ebff" data-fill-palette-color="accent"><g fill="#00ebff" data-fill-palette-color="accent"><g fill="#00ebff" data-fill-palette-color="accent"><path d="M28.368 14.767C42.162 16.327 48.04 25.762 49.69 30.695c1.07 3.198 1.472 5.094 1.472 9.275 0 0.817 0.044 2.076-1.054 2.216-0.77 0.099-1.209-0.509-1.273-1.182-0.289-3.026-1.159-6.569-4.008-9.85-2.253-2.594-7.472-7.802-16.652-7.021-2.669 0.228-5.052-1.868-5.129-4.564C22.964 16.703 25.531 14.446 28.368 14.767z" fill="#00ebff" data-fill-palette-color="accent"></path><path d="M71.633 85.232c-13.794-1.561-19.671-10.995-21.322-15.929-1.07-3.198-1.472-5.094-1.472-9.275 0-0.817-0.044-2.076 1.054-2.216 0.77-0.099 1.209 0.509 1.273 1.182 0.289 3.026 1.159 6.569 4.008 9.85 2.253 2.594 7.472 7.802 16.652 7.021 2.669-0.228 5.052 1.868 5.129 4.564C77.037 83.296 74.47 85.553 71.633 85.232z" fill="#00ebff" data-fill-palette-color="accent"></path></g><g fill="#00ebff" data-fill-palette-color="accent"><path d="M14.768 71.633c1.56-13.794 10.995-19.672 15.928-21.322 3.198-1.07 5.094-1.472 9.276-1.472 0.817 0 2.076-0.045 2.216 1.054 0.098 0.77-0.509 1.209-1.182 1.273-3.026 0.288-6.569 1.159-9.849 4.008-2.594 2.254-7.802 7.473-7.021 16.652 0.228 2.669-1.868 5.052-4.564 5.129C16.704 77.036 14.447 74.47 14.768 71.633z" fill="#00ebff" data-fill-palette-color="accent"></path><path d="M85.233 28.367c-1.56 13.794-10.995 19.672-15.928 21.322-3.198 1.07-5.094 1.472-9.276 1.472-0.817 0-2.076 0.045-2.216-1.054-0.098-0.77 0.509-1.209 1.182-1.273 3.026-0.288 6.569-1.159 9.849-4.008 2.594-2.254 7.802-7.473 7.021-16.652-0.228-2.669 1.868-5.052 4.564-5.129C83.297 22.964 85.554 25.53 85.233 28.367z" fill="#00ebff" data-fill-palette-color="accent"></path></g></g><g fill="#00ebff" data-fill-palette-color="accent"><g fill="#00ebff" data-fill-palette-color="accent"><path d="M13.65 30.304c12.726-5.546 22.533-0.314 26.43 3.133 2.526 2.234 3.821 3.676 5.912 7.297 0.409 0.708 1.077 1.775 0.195 2.446-0.617 0.47-1.302 0.164-1.693-0.387-1.763-2.477-4.289-5.109-8.396-6.525-3.249-1.12-10.373-3.021-17.931 2.246-2.198 1.531-5.309 0.907-6.724-1.389C9.938 34.682 11.033 31.444 13.65 30.304z" fill="#00ebff" data-fill-palette-color="accent"></path><path d="M86.351 69.695c-12.726 5.546-22.533 0.314-26.43-3.133-2.526-2.234-3.821-3.676-5.912-7.297-0.409-0.708-1.077-1.775-0.196-2.446 0.618-0.47 1.302-0.164 1.694 0.387 1.763 2.477 4.289 5.109 8.396 6.525 3.249 1.12 10.373 3.021 17.931-2.245 2.198-1.532 5.309-0.908 6.724 1.388C90.063 65.317 88.968 68.555 86.351 69.695z" fill="#00ebff" data-fill-palette-color="accent"></path></g><g fill="#00ebff" data-fill-palette-color="accent"><path d="M30.304 86.351c-5.546-12.726-0.314-22.533 3.133-26.43 2.235-2.525 3.676-3.821 7.298-5.912 0.708-0.409 1.775-1.076 2.445-0.195 0.47 0.617 0.164 1.302-0.387 1.693-2.477 1.764-5.109 4.289-6.525 8.396-1.12 3.248-3.021 10.372 2.246 17.931 1.531 2.198 0.908 5.31-1.389 6.725C34.683 90.062 31.445 88.968 30.304 86.351z" fill="#00ebff" data-fill-palette-color="accent"></path><path d="M69.696 13.649c5.546 12.726 0.314 22.533-3.133 26.43-2.234 2.526-3.675 3.821-7.297 5.913-0.708 0.408-1.775 1.076-2.446 0.195-0.47-0.618-0.163-1.303 0.388-1.694 2.477-1.763 5.109-4.288 6.525-8.396 1.12-3.249 3.021-10.372-2.246-17.932-1.532-2.198-0.908-5.309 1.388-6.724C65.318 9.938 68.556 11.032 69.696 13.649z" fill="#00ebff" data-fill-palette-color="accent"></path></g></g><g fill="#00ebff" data-fill-palette-color="accent"><g fill="#00ebff" data-fill-palette-color="accent"><path d="M8.671 51.118c8.248-11.166 19.357-11.539 24.456-10.502 3.305 0.672 5.147 1.272 8.769 3.363 0.708 0.408 1.82 0.999 1.392 2.021-0.299 0.716-1.045 0.793-1.66 0.512-2.765-1.263-6.269-2.28-10.533-1.453-3.374 0.654-10.494 2.57-14.406 10.911-1.138 2.425-4.144 3.44-6.518 2.159C7.646 56.766 6.976 53.414 8.671 51.118z" fill="#00ebff" data-fill-palette-color="accent"></path><path d="M91.329 48.882C83.081 60.047 71.971 60.42 66.874 59.383c-3.305-0.672-5.147-1.272-8.769-3.363-0.708-0.408-1.82-0.999-1.393-2.021 0.3-0.716 1.046-0.793 1.66-0.512 2.766 1.264 6.269 2.28 10.534 1.453 3.373-0.654 10.493-2.569 14.406-10.91 1.138-2.426 4.144-3.441 6.517-2.16C92.354 43.233 93.025 46.585 91.329 48.882z" fill="#00ebff" data-fill-palette-color="accent"></path></g><g fill="#00ebff" data-fill-palette-color="accent"><path d="M51.119 91.329C39.953 83.081 39.58 71.972 40.617 66.874c0.673-3.305 1.272-5.147 3.364-8.77 0.409-0.708 1-1.819 2.02-1.392 0.716 0.3 0.793 1.045 0.512 1.66-1.263 2.765-2.28 6.269-1.453 10.533 0.654 3.374 2.57 10.493 10.911 14.406 2.425 1.138 3.44 4.144 2.159 6.518C56.766 92.354 53.415 93.025 51.119 91.329z" fill="#00ebff" data-fill-palette-color="accent"></path><path d="M48.882 8.672c11.166 8.247 11.538 19.356 10.501 24.455-0.672 3.305-1.271 5.147-3.362 8.77-0.409 0.707-1 1.819-2.021 1.392-0.716-0.3-0.792-1.046-0.511-1.661 1.263-2.765 2.28-6.268 1.453-10.533-0.655-3.373-2.57-10.492-10.911-14.406-2.426-1.137-3.44-4.144-2.159-6.517C43.234 7.646 46.585 6.976 48.882 8.672z" fill="#00ebff" data-fill-palette-color="accent"></path></g></g></g></svg></g></svg></g></svg></g><defs></defs></svg><rect width="395.5199999999999" height="85.92234182659936" fill="none" stroke="none" visibility="hidden"></rect></g></svg></g></svg>